<svg width="26" height="26" viewBox="0 0 26 26" fill="none" xmlns="http://www.w3.org/2000/svg">
<path d="M13.0005 2.59998C18.735 2.60019 23.3999 7.26581 23.3999 13.0004C23.3997 18.7347 18.7349 23.3996 13.0005 23.3998C7.26594 23.3998 2.60031 18.7349 2.6001 13.0004C2.6001 11.9298 4.71205 11.8282 4.75732 13.0004C4.93613 17.6618 8.33652 21.2347 13.0005 21.2347C17.6643 21.2345 21.2532 17.6654 21.2534 13.0004C21.2534 8.3364 17.6656 4.7242 13.0005 4.724C10.2818 4.724 7.87494 5.82417 6.31494 7.80017L7.68896 9.17419C8.00395 9.48918 7.7809 10.0277 7.33545 10.0277H2.80029C2.68999 10.0277 2.60035 9.93873 2.6001 9.82849V5.29236C2.60017 4.84699 3.13865 4.62395 3.45361 4.93884L4.9624 6.44763C6.86377 4.11561 9.74714 2.59998 13.0005 2.59998ZM13.8647 7.8031C14.729 7.8031 14.7319 8.1915 14.7319 8.66638V13.889C14.7318 14.7405 13.8581 15.6019 12.98 15.6019H9.53369C9.52082 15.6014 8.66953 15.5623 8.66943 14.7211C8.66943 13.8797 9.52096 13.8889 9.53369 13.889H13.0347L13.0005 8.66638C13.0005 8.19517 13.0007 7.80317 13.8647 7.8031Z" fill="#03DE73"/>
</svg>
