<svg width="96" height="96" viewBox="0 0 96 96" fill="none" xmlns="http://www.w3.org/2000/svg">
<path d="M48 0C74.5097 0 96 21.4903 96 48C96 74.5097 74.5097 96 48 96C21.4903 96 0 74.5097 0 48C0 21.4903 21.4903 0 48 0ZM73.708 28.9033C72.4975 27.6989 70.5349 27.699 69.3242 28.9033L40.25 57.8301L26.6758 44.3252C25.4652 43.1208 23.5027 43.1208 22.292 44.3252L17.9082 48.6865C16.6977 49.8909 16.6977 51.8444 17.9082 53.0488L38.0576 73.0967C39.2684 74.3013 41.2316 74.3011 42.4424 73.0967L78.0918 37.627C79.3023 36.4225 79.3023 34.4701 78.0918 33.2656L73.708 28.9033Z" fill="#02B632"/>
</svg>
