<svg width="34" height="31" viewBox="0 0 34 31" fill="none" xmlns="http://www.w3.org/2000/svg">
<rect x="0.119995" y="0.586182" width="33.12" height="30.1088" fill="#FF0000" fill-opacity="0.01"/>
<path d="M15.8296 4.01733C16.4706 3.45689 17.4844 3.45691 18.1255 4.01733L27.8081 12.4685C28.2941 12.8944 28.447 13.5458 28.1948 14.115C27.9424 14.6843 27.3348 15.058 26.6596 15.0583H25.81V25.1746C25.81 26.5603 24.5737 27.6843 23.0493 27.6843H10.9057C10.1737 27.6843 9.4712 27.4195 8.95358 26.949C8.43603 26.4784 8.14499 25.84 8.14499 25.1746V15.0583H7.28952C6.61538 15.0559 6.01026 14.6818 5.75925 14.113C5.50824 13.5442 5.66153 12.8938 6.14694 12.4685L15.8296 4.01733ZM16.978 17.1453C15.7585 17.1453 14.769 18.0445 14.769 19.1531C14.7691 20.2616 15.7586 21.1599 16.978 21.1599C18.1972 21.1597 19.1859 20.2615 19.186 19.1531C19.186 18.0446 18.1973 17.1455 16.978 17.1453Z" fill="#D3D4ED"/>
<mask id="mask0_17_340" style="mask-type:luminance" maskUnits="userSpaceOnUse" x="5" y="3" width="24" height="25">
<path d="M15.8296 4.01733C16.4706 3.45689 17.4844 3.45691 18.1255 4.01733L27.8081 12.4685C28.2941 12.8944 28.447 13.5458 28.1948 14.115C27.9424 14.6843 27.3348 15.058 26.6596 15.0583H25.81V25.1746C25.81 26.5603 24.5737 27.6843 23.0493 27.6843H10.9057C10.1737 27.6843 9.4712 27.4195 8.95358 26.949C8.43603 26.4784 8.14499 25.84 8.14499 25.1746V15.0583H7.28952C6.61538 15.0559 6.01026 14.6818 5.75925 14.113C5.50824 13.5442 5.66153 12.8938 6.14694 12.4685L15.8296 4.01733ZM16.978 17.1453C15.7585 17.1453 14.769 18.0445 14.769 19.1531C14.7691 20.2616 15.7586 21.1599 16.978 21.1599C18.1972 21.1597 19.1859 20.2615 19.186 19.1531C19.186 18.0446 18.1973 17.1455 16.978 17.1453Z" fill="white"/>
</mask>
<g mask="url(#mask0_17_340)">
<rect x="0.119995" y="0.586182" width="33.12" height="30.1088" fill="#C1C0C9"/>
</g>
</svg>
