<svg width="34" height="31" viewBox="0 0 34 31" fill="none" xmlns="http://www.w3.org/2000/svg">
<rect x="0.119995" y="0.891113" width="33.12" height="30.1088" fill="#FF0000" fill-opacity="0.01"/>
<path opacity="0.3" d="M22.5276 16.8677C23.1011 16.3693 23.1124 15.5696 22.5638 15.0581C22.5605 14.5086 22.114 14.064 21.5638 14.064H21.4241L18.0198 11.1089C17.4331 10.5996 16.4824 10.5995 15.8958 11.1089C15.3091 11.6184 15.3092 12.4441 15.8958 12.9536L17.1741 14.064L5.53641 14.064C4.9842 14.064 4.53654 14.5118 4.53641 15.064V15.6733C4.53641 16.2256 4.98412 16.6733 5.53641 16.6733H18.5032L15.8958 18.937C15.3091 19.4465 15.3091 20.2732 15.8958 20.7827C16.4823 21.2918 17.4332 21.2917 18.0198 20.7827L22.5276 16.8677ZM27.72 8.11768C27.72 5.23541 25.1719 2.898 22.0286 2.89795H13.3587C10.2155 2.89808 7.85281 5.23547 7.85281 8.11768V9.42236C7.85301 10.1428 8.42844 10.7271 9.21414 10.7271C9.99976 10.727 10.6368 10.1427 10.637 9.42236V8.11768C10.637 6.67661 11.7871 5.39028 13.3587 5.39014L22.2034 5.43994C23.775 5.44001 25.0061 6.67657 25.0061 8.11768V23.7739C25.0061 25.215 23.775 26.4858 22.2034 26.4858H13.3587C11.7872 26.4857 10.5931 25.2149 10.593 23.7739V22.4692C10.593 21.7487 10.0097 21.1646 9.22391 21.1646C8.43807 21.1646 7.85281 21.7487 7.85281 22.4692V23.7739C7.85287 26.6561 10.2155 28.9925 13.3587 28.9927H22.2034C25.3466 28.9926 27.7199 26.6561 27.72 23.7739V8.11768Z" fill="black"/>
<mask id="mask0_17_337" style="mask-type:luminance" maskUnits="userSpaceOnUse" x="4" y="2" width="24" height="27">
<path d="M22.5276 16.8677C23.1011 16.3693 23.1124 15.5696 22.5638 15.0581C22.5605 14.5086 22.114 14.064 21.5638 14.064H21.4241L18.0198 11.1089C17.4331 10.5996 16.4824 10.5995 15.8958 11.1089C15.3091 11.6184 15.3092 12.4441 15.8958 12.9536L17.1741 14.064L5.53641 14.064C4.9842 14.064 4.53654 14.5118 4.53641 15.064V15.6733C4.53641 16.2256 4.98412 16.6733 5.53641 16.6733H18.5032L15.8958 18.937C15.3091 19.4465 15.3091 20.2732 15.8958 20.7827C16.4823 21.2918 17.4332 21.2917 18.0198 20.7827L22.5276 16.8677ZM27.72 8.11768C27.72 5.23541 25.1719 2.898 22.0286 2.89795H13.3587C10.2155 2.89808 7.85281 5.23547 7.85281 8.11768V9.42236C7.85301 10.1428 8.42844 10.7271 9.21414 10.7271C9.99976 10.727 10.6368 10.1427 10.637 9.42236V8.11768C10.637 6.67661 11.7871 5.39028 13.3587 5.39014L22.2034 5.43994C23.775 5.44001 25.0061 6.67657 25.0061 8.11768V23.7739C25.0061 25.215 23.775 26.4858 22.2034 26.4858H13.3587C11.7872 26.4857 10.5931 25.2149 10.593 23.7739V22.4692C10.593 21.7487 10.0097 21.1646 9.22391 21.1646C8.43807 21.1646 7.85281 21.7487 7.85281 22.4692V23.7739C7.85287 26.6561 10.2155 28.9925 13.3587 28.9927H22.2034C25.3466 28.9926 27.7199 26.6561 27.72 23.7739V8.11768Z" fill="white"/>
</mask>
<g mask="url(#mask0_17_337)">
<rect x="0.119995" y="0.891113" width="33.12" height="30.1088" fill="#C1C0C9"/>
</g>
</svg>
