<svg width="34" height="31" viewBox="0 0 34 31" fill="none" xmlns="http://www.w3.org/2000/svg">
<rect x="0.119995" y="0.23877" width="33.12" height="30.1088" fill="#FF0000" fill-opacity="0.01"/>
<path d="M19.9588 25.329C19.9588 26.8557 18.8253 27.9782 16.6639 27.9784C14.5022 27.9784 13.368 26.8558 13.368 25.329H19.9588ZM16.6795 2.24597C17.8939 2.24597 18.8224 3.08988 18.8875 4.25281V5.25671C22.8946 5.94757 25.9662 9.32464 25.5116 13.286V20.3114L28.8241 23.3221V24.326H4.53598V23.3221L7.8475 20.3114V13.286C7.39288 9.32478 10.4646 5.94773 14.4715 5.25671V4.25281C14.5366 3.09 15.4654 2.24618 16.6795 2.24597Z" fill="black"/>
<mask id="mask0_17_334" style="mask-type:luminance" maskUnits="userSpaceOnUse" x="4" y="2" width="25" height="26">
<path d="M19.9588 25.329C19.9588 26.8557 18.8253 27.9782 16.6639 27.9784C14.5022 27.9784 13.368 26.8558 13.368 25.329H19.9588ZM16.6795 2.24597C17.8939 2.24597 18.8224 3.08988 18.8875 4.25281V5.25671C22.8946 5.94757 25.9662 9.32464 25.5116 13.286V20.3114L28.8241 23.3221V24.326H4.53598V23.3221L7.8475 20.3114V13.286C7.39288 9.32478 10.4646 5.94773 14.4715 5.25671V4.25281C14.5366 3.09 15.4654 2.24618 16.6795 2.24597Z" fill="white"/>
</mask>
<g mask="url(#mask0_17_334)">
<rect x="0.119995" y="0.23877" width="33.12" height="30.1088" fill="#C1C0C9"/>
</g>
</svg>
