<svg width="21" height="25" viewBox="0 0 21 25" fill="none" xmlns="http://www.w3.org/2000/svg">
<path fill-rule="evenodd" clip-rule="evenodd" d="M10.6542 24.5501C11.6914 24.5501 16.6306 18.8348 17.8485 17.0143C19.7206 14.2157 20.8765 12.5601 20.8765 9.47063C20.8765 4.26871 16.2998 0.0517273 10.6542 0.0517273C5.00865 0.0517273 0.432007 4.26871 0.432007 9.47063C0.432007 12.5762 1.50301 14.2208 3.3689 17.0143C4.66939 18.9613 9.61703 24.5501 10.6542 24.5501ZM10.6542 14.1801C13.477 14.1801 15.7653 12.0716 15.7653 9.47063C15.7653 6.86967 13.477 4.76118 10.6542 4.76118C7.83144 4.76118 5.54312 6.86967 5.54312 9.47063C5.54312 12.0716 7.83144 14.1801 10.6542 14.1801Z" fill="#F52D56"/>
</svg>
