<svg width="34" height="31" viewBox="0 0 34 31" fill="none" xmlns="http://www.w3.org/2000/svg">
<rect x="0.119995" y="0.673828" width="33.12" height="30.1088" fill="#FF0000" fill-opacity="0.01"/>
<path d="M17.7084 3.68481C18.3356 3.69343 18.8749 4.09222 19.0121 4.64868L19.3295 6.20923C19.4771 6.74525 19.8708 7.19818 20.4105 7.45239C20.9937 7.66079 21.6498 7.61386 22.1908 7.32642L23.5687 6.43091C24.1119 6.08338 24.8524 6.14456 25.3177 6.57544L26.7484 7.86646C27.2283 8.29088 27.296 8.97033 26.9076 9.46606L25.9222 10.6409C25.5977 11.1319 25.5488 11.7343 25.7914 12.2629C26.034 12.7915 26.5387 13.1838 27.1508 13.3196L28.8685 13.6086C29.4842 13.7343 29.9235 14.2293 29.9281 14.803V16.6633C29.9186 17.2333 29.4804 17.7231 28.8685 17.8479L27.1508 18.137C26.5641 18.2796 26.0819 18.6591 25.8422 19.1663C25.6024 19.6737 25.632 20.2534 25.9222 20.7385L26.9076 21.9905C27.296 22.4862 27.2282 23.1657 26.7484 23.5901L25.3177 24.8811C24.8655 25.2711 24.179 25.3307 23.6537 25.0256L22.2758 24.1301C21.7356 23.8351 21.0731 23.7904 20.4916 24.011C19.9101 24.2316 19.4787 24.6908 19.3295 25.2473L19.0013 26.8079C18.8642 27.3644 18.3249 27.7632 17.6976 27.7717H15.6517C15.0245 27.7632 14.4852 27.3644 14.348 26.8079L14.0306 25.2473C13.8738 24.7138 13.456 24.2749 12.8978 24.0569C12.3398 23.839 11.7029 23.8665 11.1693 24.1301L9.79138 25.0256C9.24816 25.3732 8.50774 25.312 8.04236 24.8811L6.61169 23.5901C6.13184 23.1657 6.06412 22.4862 6.45251 21.9905L7.43787 20.8157C7.76244 20.3247 7.81137 19.7223 7.56873 19.1936C7.32605 18.6649 6.82062 18.2726 6.20837 18.137L4.49158 17.8479C3.87579 17.7223 3.4366 17.2273 3.43201 16.6536V14.7942C3.44133 14.224 3.87949 13.7334 4.49158 13.6086L6.20837 13.3196C6.79524 13.177 7.27812 12.7976 7.51794 12.2903C7.75775 11.7829 7.7281 11.2032 7.43787 10.718L6.45251 9.46606C6.06411 8.97032 6.13183 8.29088 6.61169 7.86646L8.04236 6.57544C8.50774 6.14456 9.24816 6.08338 9.79138 6.43091L11.1263 7.32642C11.6634 7.60562 12.3134 7.64139 12.8832 7.42212C13.4529 7.20283 13.8774 6.75409 14.0306 6.20923L14.348 4.64868C14.4861 4.08867 15.0312 3.68889 15.6625 3.68481H17.7084ZM16.6801 11.3928C14.0461 11.3928 11.9105 13.3342 11.9105 15.7288C11.9108 18.1231 14.0462 20.0637 16.6801 20.0637C19.3139 20.0637 21.4493 18.1231 21.4496 15.7288C21.4496 13.3343 19.314 11.3928 16.6801 11.3928Z" fill="#0E1D25"/>
<mask id="mask0_17_335" style="mask-type:luminance" maskUnits="userSpaceOnUse" x="3" y="3" width="27" height="25">
<path d="M17.7084 3.68481C18.3356 3.69343 18.8749 4.09222 19.0121 4.64868L19.3295 6.20923C19.4771 6.74525 19.8708 7.19818 20.4105 7.45239C20.9937 7.66079 21.6498 7.61386 22.1908 7.32642L23.5687 6.43091C24.1119 6.08338 24.8524 6.14456 25.3177 6.57544L26.7484 7.86646C27.2283 8.29088 27.296 8.97033 26.9076 9.46606L25.9222 10.6409C25.5977 11.1319 25.5488 11.7343 25.7914 12.2629C26.034 12.7915 26.5387 13.1838 27.1508 13.3196L28.8685 13.6086C29.4842 13.7343 29.9235 14.2293 29.9281 14.803V16.6633C29.9186 17.2333 29.4804 17.7231 28.8685 17.8479L27.1508 18.137C26.5641 18.2796 26.0819 18.6591 25.8422 19.1663C25.6024 19.6737 25.632 20.2534 25.9222 20.7385L26.9076 21.9905C27.296 22.4862 27.2282 23.1657 26.7484 23.5901L25.3177 24.8811C24.8655 25.2711 24.179 25.3307 23.6537 25.0256L22.2758 24.1301C21.7356 23.8351 21.0731 23.7904 20.4916 24.011C19.9101 24.2316 19.4787 24.6908 19.3295 25.2473L19.0013 26.8079C18.8642 27.3644 18.3249 27.7632 17.6976 27.7717H15.6517C15.0245 27.7632 14.4852 27.3644 14.348 26.8079L14.0306 25.2473C13.8738 24.7138 13.456 24.2749 12.8978 24.0569C12.3398 23.839 11.7029 23.8665 11.1693 24.1301L9.79138 25.0256C9.24816 25.3732 8.50774 25.312 8.04236 24.8811L6.61169 23.5901C6.13184 23.1657 6.06412 22.4862 6.45251 21.9905L7.43787 20.8157C7.76244 20.3247 7.81137 19.7223 7.56873 19.1936C7.32605 18.6649 6.82062 18.2726 6.20837 18.137L4.49158 17.8479C3.87579 17.7223 3.4366 17.2273 3.43201 16.6536V14.7942C3.44133 14.224 3.87949 13.7334 4.49158 13.6086L6.20837 13.3196C6.79524 13.177 7.27812 12.7976 7.51794 12.2903C7.75775 11.7829 7.7281 11.2032 7.43787 10.718L6.45251 9.46606C6.06411 8.97032 6.13183 8.29088 6.61169 7.86646L8.04236 6.57544C8.50774 6.14456 9.24816 6.08338 9.79138 6.43091L11.1263 7.32642C11.6634 7.60562 12.3134 7.64139 12.8832 7.42212C13.4529 7.20283 13.8774 6.75409 14.0306 6.20923L14.348 4.64868C14.4861 4.08867 15.0312 3.68889 15.6625 3.68481H17.7084ZM16.6801 11.3928C14.0461 11.3928 11.9105 13.3342 11.9105 15.7288C11.9108 18.1231 14.0462 20.0637 16.6801 20.0637C19.3139 20.0637 21.4493 18.1231 21.4496 15.7288C21.4496 13.3343 19.314 11.3928 16.6801 11.3928Z" fill="white"/>
</mask>
<g mask="url(#mask0_17_335)">
<rect x="0.119995" y="0.673828" width="33.12" height="30.1088" fill="#C1C0C9"/>
</g>
</svg>
